<!-- Generator: Adobe Illustrator 21.1.0, SVG Export Plug-In  -->
<svg version="1.1"
	 xmlns="http://www.w3.org/2000/svg" xmlns:xlink="http://www.w3.org/1999/xlink" xmlns:a="http://ns.adobe.com/AdobeSVGViewerExtensions/3.0/"
	 x="0px" y="0px" width="35.2px" height="39.9px" viewBox="0 0 35.2 39.9" style="enable-background:new 0 0 35.2 39.9;"
	 xml:space="preserve">
<style type="text/css">
	.st0{fill:#959595;}
	.st1{fill:#3467B1;}
	.st2{fill:#FFFFFF;}
	.st3{fill:#383838;}
</style>
<defs>
</defs>
<g>
	<rect x="21.1" y="16.4" transform="matrix(-1 -4.491975e-11 4.491975e-11 -1 44.6246 35.2299)" width="2.3" height="2.3"/>
	<rect x="14.1" y="16.4" transform="matrix(-1 -4.491975e-11 4.491975e-11 -1 30.5327 35.2299)" width="2.3" height="2.3"/>
	<g>
		<polygon class="st0" points="16.4,9.4 16.4,11.7 18.8,11.7 18.8,9.4 18.8,7 16.4,7 		"/>
		<polygon class="st0" points="32.9,16.4 32.9,14.1 30.5,14.1 28.2,14.1 28.2,16.4 25.8,16.4 25.8,18.8 28.2,18.8 28.2,21.1 
			30.5,21.1 32.9,21.1 32.9,18.8 30.5,18.8 30.5,16.4 		"/>
		<polygon class="st0" points="7,14.1 4.7,14.1 2.3,14.1 2.3,16.4 4.7,16.4 4.7,18.8 2.3,18.8 2.3,21.1 4.7,21.1 7,21.1 7,18.8 
			9.4,18.8 9.4,16.4 7,16.4 		"/>
	</g>
	<path class="st1" d="M23.5,11.7h-2.3h-2.3h-2.3h-2.3h-2.3H9.4v2.3v2.3v2.3v2.3v2.3v2.3h2.3h2.3h2.3h2.3h2.3h2.3h2.3v-2.3v-2.3v-2.3
		v-2.3v-2.3v-2.3H23.5z M11.7,16.4v-2.3h2.3h2.3v2.3v2.3h-2.3h-2.3V16.4z M23.5,16.4v2.3h-2.3h-2.3v-2.3v-2.3h2.3h2.3V16.4z"/>
	<g>
		<polygon class="st2" points="18.8,14.1 18.8,16.4 18.8,18.8 21.1,18.8 21.1,16.4 23.5,16.4 23.5,14.1 21.1,14.1 		"/>
		<polygon class="st2" points="11.7,14.1 11.7,16.4 11.7,18.8 14.1,18.8 14.1,16.4 16.4,16.4 16.4,14.1 14.1,14.1 		"/>
		<rect x="28.2" y="35.2" class="st2" width="2.3" height="2.3"/>
		<polygon class="st2" points="23.5,37.6 23.5,39.9 25.8,39.9 28.2,39.9 28.2,37.6 25.8,37.6 		"/>
		<polygon class="st2" points="23.5,32.9 23.5,30.5 23.5,28.2 23.5,25.8 21.1,25.8 18.8,25.8 18.8,28.2 18.8,30.5 18.8,32.9 
			18.8,35.2 21.1,35.2 21.1,37.6 23.5,37.6 23.5,35.2 		"/>
		<polygon class="st2" points="16.4,37.6 16.4,39.9 18.8,39.9 21.1,39.9 21.1,37.6 18.8,37.6 		"/>
		<polygon class="st2" points="16.4,32.9 16.4,30.5 16.4,28.2 16.4,25.8 14.1,25.8 11.7,25.8 11.7,28.2 11.7,30.5 11.7,32.9 
			11.7,35.2 14.1,35.2 14.1,37.6 16.4,37.6 16.4,35.2 		"/>
		<polygon class="st2" points="9.4,37.6 9.4,39.9 11.7,39.9 14.1,39.9 14.1,37.6 11.7,37.6 		"/>
		<polygon class="st2" points="9.4,32.9 9.4,30.5 9.4,28.2 9.4,25.8 9.4,23.5 9.4,21.1 9.4,18.8 7,18.8 7,21.1 4.7,21.1 2.3,21.1 
			2.3,23.5 4.7,23.5 7,23.5 7,25.8 7,28.2 7,30.5 7,32.9 7,35.2 7,37.6 9.4,37.6 9.4,35.2 		"/>
		<rect y="18.8" class="st2" width="2.3" height="2.3"/>
		<rect x="2.3" y="16.4" class="st2" width="2.3" height="2.3"/>
		<rect y="14.1" class="st2" width="2.3" height="2.3"/>
		<polygon class="st2" points="7,14.1 7,16.4 9.4,16.4 9.4,14.1 9.4,11.7 7,11.7 4.7,11.7 2.3,11.7 2.3,14.1 4.7,14.1 		"/>
		<polygon class="st2" points="14.1,11.7 16.4,11.7 16.4,9.4 16.4,7 14.1,7 14.1,9.4 11.7,9.4 9.4,9.4 9.4,11.7 11.7,11.7 		"/>
		<rect x="11.7" y="4.7" class="st2" width="2.3" height="2.3"/>
		<rect x="14.1" y="2.3" class="st2" width="2.3" height="2.3"/>
		<rect x="16.4" class="st2" width="2.3" height="2.3"/>
		<rect x="18.8" y="2.3" class="st2" width="2.3" height="2.3"/>
		<rect x="21.1" y="4.7" class="st2" width="2.3" height="2.3"/>
		<polygon class="st2" points="18.8,9.4 18.8,11.7 21.1,11.7 23.5,11.7 25.8,11.7 25.8,9.4 23.5,9.4 21.1,9.4 21.1,7 18.8,7 		"/>
		<polygon class="st2" points="25.8,16.4 28.2,16.4 28.2,14.1 30.5,14.1 32.9,14.1 32.9,11.7 30.5,11.7 28.2,11.7 25.8,11.7 
			25.8,14.1 		"/>
		<rect x="32.9" y="14.1" class="st2" width="2.3" height="2.3"/>
		<rect x="30.5" y="16.4" class="st2" width="2.3" height="2.3"/>
		<rect x="32.9" y="18.8" class="st2" width="2.3" height="2.3"/>
		<polygon class="st2" points="28.2,21.1 28.2,18.8 25.8,18.8 25.8,21.1 25.8,23.5 25.8,25.8 25.8,28.2 25.8,30.5 25.8,32.9 
			25.8,35.2 28.2,35.2 28.2,32.9 28.2,30.5 28.2,28.2 28.2,25.8 28.2,23.5 30.5,23.5 32.9,23.5 32.9,21.1 30.5,21.1 		"/>
	</g>
	<g>
		<polygon class="st3" points="18.8,2.3 16.4,2.3 16.4,4.7 14.1,4.7 14.1,7 16.4,7 18.8,7 21.1,7 21.1,4.7 18.8,4.7 		"/>
		<polygon class="st3" points="18.8,32.9 18.8,30.5 18.8,28.2 18.8,25.8 16.4,25.8 16.4,28.2 16.4,30.5 16.4,32.9 16.4,35.2 
			16.4,37.6 18.8,37.6 21.1,37.6 21.1,35.2 18.8,35.2 		"/>
		<polygon class="st3" points="11.7,32.9 11.7,30.5 11.7,28.2 11.7,25.8 9.4,25.8 9.4,28.2 9.4,30.5 9.4,32.9 9.4,35.2 9.4,37.6 
			11.7,37.6 14.1,37.6 14.1,35.2 11.7,35.2 		"/>
		<polygon class="st3" points="25.8,35.2 25.8,32.9 25.8,30.5 25.8,28.2 25.8,25.8 23.5,25.8 23.5,28.2 23.5,30.5 23.5,32.9 
			23.5,35.2 23.5,37.6 25.8,37.6 28.2,37.6 28.2,35.2 		"/>
	</g>
</g>
</svg>
