<!-- Generator: Adobe Illustrator 21.1.0, SVG Export Plug-In  -->
<svg version="1.1"
	 xmlns="http://www.w3.org/2000/svg" xmlns:xlink="http://www.w3.org/1999/xlink" xmlns:a="http://ns.adobe.com/AdobeSVGViewerExtensions/3.0/"
	 x="0px" y="0px" width="32.9px" height="42.3px" viewBox="0 0 32.9 42.3" style="enable-background:new 0 0 32.9 42.3;"
	 xml:space="preserve">
<style type="text/css">
	.st0{fill:#3B3B3B;}
	.st1{fill:#FFFFFF;}
	.st2{fill:#B32A2E;}
	.st3{fill:#929292;}
</style>
<defs>
</defs>
<g>
	<g>
		<rect x="4.7" y="2.3" class="st0" width="2.3" height="2.3"/>
		<rect x="7" y="2.3" class="st0" width="2.3" height="2.3"/>
		<rect x="9.4" y="2.3" class="st0" width="2.3" height="2.3"/>
		<rect x="11.7" y="2.3" class="st0" width="2.3" height="2.3"/>
		<rect x="14.1" y="2.3" class="st0" width="2.3" height="2.3"/>
		<rect x="16.4" y="2.3" class="st0" width="2.3" height="2.3"/>
		<rect x="18.8" y="2.3" class="st0" width="2.3" height="2.3"/>
		<rect x="21.1" y="2.3" class="st0" width="2.3" height="2.3"/>
		<rect x="23.5" y="2.3" class="st0" width="2.3" height="2.3"/>
		<rect x="7" y="4.7" class="st0" width="2.3" height="2.3"/>
		<rect x="9.4" y="4.7" class="st0" width="2.3" height="2.3"/>
		<rect x="21.1" y="4.7" class="st0" width="2.3" height="2.3"/>
		<rect x="7" y="7" class="st0" width="2.3" height="2.3"/>
		<rect x="11.7" y="7" class="st0" width="2.3" height="2.3"/>
		<rect x="21.1" y="7" class="st0" width="2.3" height="2.3"/>
		<rect x="7" y="9.4" class="st0" width="2.3" height="2.3"/>
		<rect x="14.1" y="9.4" class="st0" width="2.3" height="2.3"/>
		<rect x="21.1" y="9.4" class="st0" width="2.3" height="2.3"/>
		<rect x="7" y="11.7" class="st0" width="2.3" height="2.3"/>
		<rect x="16.4" y="11.7" class="st0" width="2.3" height="2.3"/>
		<rect x="21.1" y="11.7" class="st0" width="2.3" height="2.3"/>
		<rect x="7" y="14.1" class="st0" width="2.3" height="2.3"/>
		<rect x="18.8" y="14.1" class="st0" width="2.3" height="2.3"/>
		<rect x="21.1" y="14.1" class="st0" width="2.3" height="2.3"/>
		<rect x="21.1" y="21.1" width="2.3" height="2.3"/>
		<rect x="28.2" y="21.1" width="2.3" height="2.3"/>
		<rect x="4.7" y="30.5" width="2.3" height="2.3"/>
		<rect x="9.4" y="30.5" width="2.3" height="2.3"/>
		<rect x="18.8" y="30.5" width="2.3" height="2.3"/>
		<rect x="23.5" y="30.5" width="2.3" height="2.3"/>
		<rect x="7" y="32.9" width="2.3" height="2.3"/>
		<g>
			<polygon class="st1" points="18.8,18.8 18.8,21.1 18.8,23.5 21.1,23.5 21.1,21.1 23.5,21.1 23.5,18.8 21.1,18.8 			"/>
			<polygon class="st1" points="16.4,32.9 14.1,32.9 14.1,35.2 14.1,37.6 16.4,37.6 16.4,35.2 			"/>
			<rect x="16.4" y="37.6" class="st1" width="2.3" height="2.3"/>
			<polygon class="st1" points="21.1,39.9 18.8,39.9 18.8,42.3 21.1,42.3 23.5,42.3 25.8,42.3 25.8,39.9 23.5,39.9 			"/>
			<rect x="25.8" y="37.6" class="st1" width="2.3" height="2.3"/>
			<polygon class="st1" points="28.2,25.8 28.2,28.2 28.2,30.5 28.2,32.9 28.2,35.2 28.2,37.6 30.5,37.6 30.5,35.2 30.5,32.9 
				30.5,30.5 30.5,28.2 30.5,25.8 30.5,23.5 28.2,23.5 			"/>
			<polygon class="st1" points="30.5,18.8 30.5,16.4 28.2,16.4 25.8,16.4 25.8,18.8 25.8,21.1 25.8,23.5 28.2,23.5 28.2,21.1 
				30.5,21.1 30.5,23.5 32.9,23.5 32.9,21.1 32.9,18.8 			"/>
			<polygon class="st1" points="23.5,7 23.5,9.4 23.5,11.7 23.5,14.1 23.5,16.4 25.8,16.4 25.8,14.1 25.8,11.7 25.8,9.4 25.8,7 
				25.8,4.7 23.5,4.7 			"/>
			<rect x="25.8" y="2.3" class="st1" width="2.3" height="2.3"/>
			<polygon class="st1" points="9.4,2.3 11.7,2.3 14.1,2.3 16.4,2.3 18.8,2.3 21.1,2.3 23.5,2.3 25.8,2.3 25.8,0 23.5,0 21.1,0 
				18.8,0 16.4,0 14.1,0 11.7,0 9.4,0 7,0 4.7,0 4.7,2.3 7,2.3 			"/>
			<rect x="2.3" y="2.3" class="st1" width="2.3" height="2.3"/>
			<polygon class="st1" points="7,14.1 7,11.7 7,9.4 7,7 7,4.7 4.7,4.7 4.7,7 4.7,9.4 4.7,11.7 4.7,14.1 4.7,16.4 7,16.4 			"/>
			<rect x="2.3" y="16.4" class="st1" width="2.3" height="2.3"/>
			<polygon class="st1" points="2.3,32.9 2.3,30.5 2.3,28.2 2.3,25.8 2.3,23.5 2.3,21.1 2.3,18.8 0,18.8 0,21.1 0,23.5 0,25.8 
				0,28.2 0,30.5 0,32.9 0,35.2 0,37.6 2.3,37.6 2.3,35.2 			"/>
			<rect x="2.3" y="37.6" class="st1" width="2.3" height="2.3"/>
			<polygon class="st1" points="7,39.9 4.7,39.9 4.7,42.3 7,42.3 9.4,42.3 11.7,42.3 11.7,39.9 9.4,39.9 			"/>
			<rect x="11.7" y="37.6" class="st1" width="2.3" height="2.3"/>
			<polygon class="st1" points="18.8,14.1 16.4,14.1 16.4,11.7 14.1,11.7 14.1,14.1 11.7,14.1 11.7,11.7 14.1,11.7 14.1,9.4 
				11.7,9.4 11.7,7 9.4,7 9.4,9.4 9.4,11.7 9.4,14.1 9.4,16.4 11.7,16.4 14.1,16.4 16.4,16.4 18.8,16.4 			"/>
			<polygon class="st1" points="14.1,9.4 16.4,9.4 16.4,7 18.8,7 18.8,9.4 16.4,9.4 16.4,11.7 18.8,11.7 18.8,14.1 21.1,14.1 
				21.1,11.7 21.1,9.4 21.1,7 21.1,4.7 18.8,4.7 16.4,4.7 14.1,4.7 11.7,4.7 11.7,7 14.1,7 			"/>
		</g>
		<rect x="21.1" y="32.9" width="2.3" height="2.3"/>
		<rect x="4.7" y="35.2" width="2.3" height="2.3"/>
		<rect x="9.4" y="35.2" width="2.3" height="2.3"/>
		<rect x="18.8" y="35.2" width="2.3" height="2.3"/>
		<rect x="23.5" y="35.2" width="2.3" height="2.3"/>
		<path class="st2" d="M25.8,23.5v-2.3v-2.3v-2.3h-2.3h-2.3h-2.3h-2.3h-2.3h-2.3H9.4H7H4.7v2.3H2.3v2.3v2.3v2.3v2.3v2.3h2.3v-2.3H7
			h2.3h2.3v2.3h2.3v2.3h2.3v-2.3h2.3v-2.3h2.3h2.3h2.3v2.3h2.3v-2.3v-2.3v-2.3H25.8z M21.1,18.8h2.3v2.3v2.3h-2.3h-2.3v-2.3v-2.3
			H21.1z"/>
		<g>
			<polygon class="st3" points="7,32.9 9.4,32.9 9.4,30.5 11.7,30.5 11.7,28.2 9.4,28.2 7,28.2 4.7,28.2 4.7,30.5 7,30.5 			"/>
			<polygon class="st3" points="11.7,32.9 9.4,32.9 9.4,35.2 11.7,35.2 11.7,37.6 14.1,37.6 14.1,35.2 14.1,32.9 14.1,30.5 
				11.7,30.5 			"/>
			<polygon class="st3" points="21.1,32.9 23.5,32.9 23.5,30.5 25.8,30.5 25.8,28.2 23.5,28.2 21.1,28.2 18.8,28.2 18.8,30.5 
				21.1,30.5 			"/>
			<polygon class="st3" points="25.8,30.5 25.8,32.9 23.5,32.9 23.5,35.2 25.8,35.2 25.8,37.6 28.2,37.6 28.2,35.2 28.2,32.9 
				28.2,30.5 			"/>
			<polygon class="st3" points="7,35.2 7,32.9 4.7,32.9 4.7,30.5 2.3,30.5 2.3,32.9 2.3,35.2 2.3,37.6 4.7,37.6 4.7,35.2 			"/>
			<polygon class="st3" points="21.1,35.2 21.1,32.9 18.8,32.9 18.8,30.5 16.4,30.5 16.4,32.9 16.4,35.2 16.4,37.6 18.8,37.6 
				18.8,35.2 			"/>
			<polygon class="st3" points="9.4,35.2 7,35.2 7,37.6 4.7,37.6 4.7,39.9 7,39.9 9.4,39.9 11.7,39.9 11.7,37.6 9.4,37.6 			"/>
			<polygon class="st3" points="23.5,35.2 21.1,35.2 21.1,37.6 18.8,37.6 18.8,39.9 21.1,39.9 23.5,39.9 25.8,39.9 25.8,37.6 
				23.5,37.6 			"/>
		</g>
	</g>
</g>
</svg>
