<!-- Generator: Adobe Illustrator 21.1.0, SVG Export Plug-In  -->
<svg version="1.1"
	 xmlns="http://www.w3.org/2000/svg" xmlns:xlink="http://www.w3.org/1999/xlink" xmlns:a="http://ns.adobe.com/AdobeSVGViewerExtensions/3.0/"
	 x="0px" y="0px" width="42.3px" height="44.6px" viewBox="0 0 42.3 44.6" style="enable-background:new 0 0 42.3 44.6;"
	 xml:space="preserve">
<style type="text/css">
	.st0{fill:#383838;}
	.st1{fill:#FFFFFF;}
	.st2{fill:#959595;}
	.st3{fill:#B32A2E;}
</style>
<defs>
</defs>
<g>
	<polygon class="st0" points="37.6,4.7 37.6,2.3 35.2,2.3 32.9,2.3 30.5,2.3 30.5,4.7 28.2,4.7 28.2,7 28.2,9.4 25.8,9.4 23.5,9.4 
		21.1,9.4 18.8,9.4 18.8,11.7 18.8,14.1 18.8,16.4 18.8,18.8 18.8,21.1 21.1,21.1 23.5,21.1 23.5,18.8 23.5,16.4 23.5,14.1 
		25.8,14.1 28.2,14.1 28.2,16.4 30.5,16.4 30.5,18.8 32.9,18.8 35.2,18.8 37.6,18.8 37.6,16.4 39.9,16.4 39.9,14.1 39.9,11.7 
		37.6,11.7 37.6,14.1 35.2,14.1 35.2,16.4 32.9,16.4 32.9,14.1 30.5,14.1 30.5,11.7 30.5,9.4 30.5,7 32.9,7 32.9,4.7 35.2,4.7 
		35.2,7 37.6,7 37.6,9.4 39.9,9.4 39.9,7 39.9,4.7 	"/>
	<g>
		<polygon class="st1" points="30.5,28.2 30.5,25.8 28.2,25.8 28.2,23.5 25.8,23.5 25.8,25.8 25.8,28.2 28.2,28.2 		"/>
		<rect x="2.3" y="39.9" class="st1" width="2.3" height="2.3"/>
		<polygon class="st1" points="2.3,35.2 2.3,32.9 2.3,30.5 2.3,28.2 2.3,25.8 0,25.8 0,28.2 0,30.5 0,32.9 0,35.2 0,37.6 0,39.9 
			2.3,39.9 2.3,37.6 		"/>
		<polygon class="st1" points="4.7,23.5 4.7,21.1 2.3,21.1 2.3,23.5 2.3,25.8 4.7,25.8 		"/>
		<polygon class="st1" points="9.4,21.1 11.7,21.1 14.1,21.1 16.4,21.1 18.8,21.1 18.8,18.8 18.8,16.4 18.8,14.1 18.8,11.7 
			18.8,9.4 16.4,9.4 16.4,11.7 16.4,14.1 16.4,16.4 16.4,18.8 14.1,18.8 11.7,18.8 9.4,18.8 7,18.8 4.7,18.8 4.7,21.1 7,21.1 		"/>
		<polygon class="st1" points="23.5,9.4 25.8,9.4 28.2,9.4 28.2,7 28.2,4.7 25.8,4.7 25.8,7 23.5,7 21.1,7 18.8,7 18.8,9.4 
			21.1,9.4 		"/>
		<rect x="28.2" y="2.3" class="st1" width="2.3" height="2.3"/>
		<polygon class="st1" points="35.2,2.3 37.6,2.3 37.6,0 35.2,0 32.9,0 30.5,0 30.5,2.3 32.9,2.3 		"/>
		<rect x="37.6" y="2.3" class="st1" width="2.3" height="2.3"/>
		<polygon class="st1" points="39.9,4.7 39.9,7 39.9,9.4 42.3,9.4 42.3,7 42.3,4.7 		"/>
		<rect x="37.6" y="9.4" class="st1" width="2.3" height="2.3"/>
		<rect x="35.2" y="7" class="st1" width="2.3" height="2.3"/>
		<rect x="32.9" y="4.7" class="st1" width="2.3" height="2.3"/>
		<polygon class="st1" points="32.9,9.4 32.9,7 30.5,7 30.5,9.4 30.5,11.7 30.5,14.1 32.9,14.1 32.9,11.7 		"/>
		<rect x="32.9" y="14.1" class="st1" width="2.3" height="2.3"/>
		<rect x="35.2" y="11.7" class="st1" width="2.3" height="2.3"/>
		<polygon class="st1" points="39.9,16.4 42.3,16.4 42.3,14.1 42.3,11.7 39.9,11.7 39.9,14.1 		"/>
		<rect x="37.6" y="16.4" class="st1" width="2.3" height="2.3"/>
		<polygon class="st1" points="32.9,18.8 30.5,18.8 30.5,16.4 28.2,16.4 28.2,18.8 25.8,18.8 25.8,16.4 28.2,16.4 28.2,14.1 
			25.8,14.1 23.5,14.1 23.5,16.4 23.5,18.8 23.5,21.1 25.8,21.1 28.2,21.1 30.5,21.1 32.9,21.1 32.9,23.5 32.9,25.8 32.9,28.2 
			35.2,28.2 35.2,30.5 35.2,32.9 35.2,35.2 35.2,37.6 35.2,39.9 37.6,39.9 37.6,37.6 37.6,35.2 37.6,32.9 37.6,30.5 37.6,28.2 
			39.9,28.2 39.9,25.8 39.9,23.5 37.6,23.5 37.6,25.8 35.2,25.8 35.2,23.5 37.6,23.5 37.6,21.1 37.6,18.8 35.2,18.8 		"/>
		<rect x="32.9" y="39.9" class="st1" width="2.3" height="2.3"/>
		<polygon class="st1" points="28.2,42.3 28.2,44.6 30.5,44.6 32.9,44.6 32.9,42.3 30.5,42.3 		"/>
		<rect x="25.8" y="39.9" class="st1" width="2.3" height="2.3"/>
		<rect x="23.5" y="37.6" class="st1" width="2.3" height="2.3"/>
		<rect x="21.1" y="39.9" class="st1" width="2.3" height="2.3"/>
		<polygon class="st1" points="16.4,42.3 16.4,44.6 18.8,44.6 21.1,44.6 21.1,42.3 18.8,42.3 		"/>
		<rect x="14.1" y="39.9" class="st1" width="2.3" height="2.3"/>
		<rect x="11.7" y="37.6" class="st1" width="2.3" height="2.3"/>
		<rect x="9.4" y="39.9" class="st1" width="2.3" height="2.3"/>
		<polygon class="st1" points="4.7,42.3 4.7,44.6 7,44.6 9.4,44.6 9.4,42.3 7,42.3 		"/>
	</g>
	<g>
		<rect x="35.2" y="23.5" width="2.3" height="2.3"/>
		<polygon points="28.2,35.2 28.2,37.6 28.2,39.9 30.5,39.9 32.9,39.9 32.9,37.6 32.9,35.2 30.5,35.2 		"/>
		<rect x="28.2" y="23.5" width="2.3" height="2.3"/>
		<polygon points="16.4,35.2 16.4,37.6 16.4,39.9 18.8,39.9 21.1,39.9 21.1,37.6 21.1,35.2 18.8,35.2 		"/>
		<polygon points="4.7,35.2 4.7,37.6 4.7,39.9 7,39.9 9.4,39.9 9.4,37.6 9.4,35.2 7,35.2 		"/>
	</g>
	<g>
		<polygon class="st2" points="32.9,35.2 32.9,37.6 32.9,39.9 35.2,39.9 35.2,37.6 35.2,35.2 		"/>
		<polygon class="st2" points="32.9,35.2 32.9,32.9 30.5,32.9 28.2,32.9 28.2,35.2 30.5,35.2 		"/>
		<polygon class="st2" points="28.2,39.9 28.2,42.3 30.5,42.3 32.9,42.3 32.9,39.9 30.5,39.9 		"/>
		<polygon class="st2" points="28.2,35.2 25.8,35.2 25.8,37.6 25.8,39.9 28.2,39.9 28.2,37.6 		"/>
		<polygon class="st2" points="21.1,37.6 21.1,39.9 23.5,39.9 23.5,37.6 23.5,35.2 21.1,35.2 		"/>
		<polygon class="st2" points="21.1,35.2 21.1,32.9 18.8,32.9 16.4,32.9 16.4,35.2 18.8,35.2 		"/>
		<polygon class="st2" points="16.4,39.9 16.4,42.3 18.8,42.3 21.1,42.3 21.1,39.9 18.8,39.9 		"/>
		<polygon class="st2" points="16.4,35.2 14.1,35.2 14.1,37.6 14.1,39.9 16.4,39.9 16.4,37.6 		"/>
		<polygon class="st2" points="9.4,37.6 9.4,39.9 11.7,39.9 11.7,37.6 11.7,35.2 9.4,35.2 		"/>
		<polygon class="st2" points="9.4,35.2 9.4,32.9 7,32.9 4.7,32.9 4.7,35.2 7,35.2 		"/>
		<polygon class="st2" points="4.7,39.9 4.7,42.3 7,42.3 9.4,42.3 9.4,39.9 7,39.9 		"/>
		<polygon class="st2" points="4.7,35.2 2.3,35.2 2.3,37.6 2.3,39.9 4.7,39.9 4.7,37.6 		"/>
	</g>
	<path class="st3" d="M32.9,28.2v-2.3v-2.3v-2.3h-2.3h-2.3h-2.3h-2.3h-2.3h-2.3h-2.3h-2.3h-2.3H9.4H7H4.7v2.3v2.3H2.3v2.3v2.3v2.3
		v2.3h2.3v-2.3H7h2.3v2.3h2.3v2.3h2.3v-2.3h2.3v-2.3h2.3h2.3v2.3h2.3v2.3h2.3v-2.3h2.3v-2.3h2.3h2.3v2.3h2.3v-2.3v-2.3v-2.3H32.9z
		 M28.2,23.5h2.3v2.3v2.3h-2.3h-2.3v-2.3v-2.3H28.2z"/>
</g>
</svg>
